<?xml version="1.0" encoding="utf-8"?>
<!-- Generator: Adobe Illustrator 21.1.0, SVG Export Plug-In . SVG Version: 6.00 Build 0)  -->
<svg version="1.1" id="Warstwa_1" xmlns="http://www.w3.org/2000/svg" xmlns:xlink="http://www.w3.org/1999/xlink" x="0px" y="0px"
	 viewBox="0 0 76.4 76.4" style="enable-background:new 0 0 76.4 76.4;" xml:space="preserve">
<style type="text/css">
	.st0{fill:#B3B3B3;}
	.st1{fill:#B3B3B3;stroke:#B3B3B3;stroke-miterlimit:10;}
</style>
<g id="Warstwa_1_1_">
	<g>
		<path class="st0" d="M0,76.4C0,50.7,0,25.5,0,0c25.5,0,50.8,0,76.4,0c0,25.3,0,50.7,0,76.4C51.1,76.4,25.7,76.4,0,76.4z M2,1.8
			c0,24.6,0,48.6,0,72.7c24.4,0,48.5,0,72.6,0c0-24.4,0-48.4,0-72.7C50.2,1.8,26.3,1.8,2,1.8z"/>
	</g>
</g>
<g id="Warstwa_2">
	<path class="st1" d="M43.3,19.8c0.7-0.6,2.4-0.5,2.4-0.5l5.9,0.1v-9.3c-0.1-0.3-8.3-0.3-8.3-0.3s-4,0-6.1,1.5s-1.4,0.6-4,3.6
		s-2.5,8.4-2.5,8.4v7.4h-8.6v10.1h8.6v25.9h10.6V40.8H50l1.3-10.1h-10V24c0,0,0-1.6,0.2-2.4C41.9,20.8,42.7,20.4,43.3,19.8z"/>
</g>
</svg>
