<?xml version="1.0" encoding="utf-8"?>
<!-- Generator: Adobe Illustrator 21.1.0, SVG Export Plug-In . SVG Version: 6.00 Build 0)  -->
<svg version="1.1" id="Warstwa_1" xmlns="http://www.w3.org/2000/svg" xmlns:xlink="http://www.w3.org/1999/xlink" x="0px" y="0px"
	 viewBox="0 0 76.4 76.4" style="enable-background:new 0 0 76.4 76.4;" xml:space="preserve">
<style type="text/css">
	.st0{fill:#B3B3B3;}
</style>
<g id="Warstwa_1_1_">
	<g>
		<path class="st0" d="M0,76.3C0,50.7,0,25.7,0,0.1c25.6,0,50.9,0,76.4,0c0,25.4,0,50.6,0,76.2C51.1,76.3,25.8,76.3,0,76.3z
			 M1.9,74.4c24.5,0,48.6,0,72.6,0c0-24.4,0-48.4,0-72.3c-24.4,0-48.4,0-72.6,0C1.9,26.3,1.9,50.2,1.9,74.4z"/>
	</g>
	<g>
		<path class="st0" d="M15.8,9.9c15.2,0,30.5,0,45.7,0c0.1,0,0.3,0.1,0.4,0.1c3.2,0.8,5.2,3.3,5.2,6.5c0,14.6,0,29.2,0,43.6
			c0,3.6-2.9,6.5-6.5,6.5c-14.6,0-29.2,0-43.8,0c-3.6,0-6.5-2.9-6.5-6.5c0-14.6,0-29.2,0-43.8c0-2.8,1.8-5.3,4.5-6.1
			C15.1,10.1,15.4,9.9,15.8,9.9z M16.8,33.9c0,0.3,0,0.6,0,0.9c0,7.6,0,15.1,0,22.6c0,1.9,0.8,2.7,2.7,2.7c12.8,0,25.6,0,38.3,0
			c1.9,0,2.7-0.8,2.7-2.7c0-7.6,0-15.1,0-22.6c0-0.2,0-0.4,0-0.6c0-0.1-0.2-0.3-0.3-0.3c-1.5,0-3,0-4.5,0
			c2.9,10.8-5.3,21.6-16.5,21.8c-5.2,0.1-9.7-1.7-13.3-5.5c-4.3-4.6-5.6-10.1-4.2-16.3C20,33.9,18.5,33.9,16.8,33.9z M38.6,49.2
			c6,0,11-4.9,11-10.9s-4.9-11-10.9-11s-11,4.9-11,10.9C27.6,44.2,32.5,49.2,38.6,49.2z M55,27.3c1.1,0,2.1,0,3.2,0
			c1.3,0,2.2-0.9,2.3-2.2c0-2.1,0-4.3,0-6.4c0-1.4-0.9-2.3-2.3-2.3c-2.1,0-4.2,0-6.3,0c-1.4,0-2.3,0.9-2.3,2.3c0,2.1,0,4.2,0,6.3
			c0,1.4,0.9,2.3,2.3,2.3C52.9,27.3,53.9,27.3,55,27.3z"/>
	</g>
</g>
<g id="Warstwa_2">
</g>
</svg>
