<?xml version="1.0" encoding="utf-8"?>
<!-- Generator: Adobe Illustrator 21.1.0, SVG Export Plug-In . SVG Version: 6.00 Build 0)  -->
<svg version="1.1" id="Warstwa_1" xmlns="http://www.w3.org/2000/svg" xmlns:xlink="http://www.w3.org/1999/xlink" x="0px" y="0px"
	 viewBox="0 0 93.8 93.6" style="enable-background:new 0 0 93.8 93.6;" xml:space="preserve">
<style type="text/css">
	.st0{fill:#B3B3B3;}
</style>
<g id="Warstwa_1_1_">
	<g>
		<path class="st0" d="M0,93.6C0,62.2,0,31.4,0,0c31.4,0,62.5,0,93.8,0c0,31.2,0,62.1,0,93.6C62.7,93.6,31.7,93.6,0,93.6z M2.3,91.3
			c30.1,0,59.7,0,89.1,0c0-29.9,0-59.4,0-88.8c-29.9,0-59.4,0-89.1,0C2.3,32.2,2.3,61.5,2.3,91.3z"/>
	</g>
	<g>
		<path class="st0" d="M19.4,12c18.7,0,37.4,0,56.1,0c0.1,0,0.4,0.1,0.5,0.1c3.9,1,6.4,4,6.4,8c0,17.9,0,35.8,0,53.5
			c0,4.4-3.6,8-8,8c-17.9,0-35.9,0-53.8,0c-4.4,0-8-3.6-8-8c0-17.9,0-35.9,0-53.8c0-3.4,2.2-6.5,5.5-7.5
			C18.5,12.3,18.9,12.1,19.4,12z M20.6,41.5c0,0.4,0,0.7,0,1.1c0,9.3,0,18.5,0,27.8c0,2.3,1,3.3,3.3,3.3c15.7,0,31.4,0,47,0
			c2.3,0,3.3-1,3.3-3.3c0-9.3,0-18.5,0-27.8c0-0.2,0-0.5,0-0.7c0-0.1-0.2-0.4-0.4-0.4c-1.8,0-3.7,0-5.5,0
			c3.6,13.2-6.5,26.5-20.2,26.8c-6.4,0.1-11.9-2.1-16.3-6.7c-5.3-5.6-6.9-12.4-5.1-20C24.6,41.5,22.7,41.5,20.6,41.5z M47.4,60.3
			c7.4,0,13.5-6,13.5-13.4s-6-13.5-13.4-13.5s-13.5,6-13.5,13.4C33.9,54.2,39.9,60.3,47.4,60.3z M67.5,33.4c1.3,0,2.6,0,3.9,0
			c1.6,0,2.7-1.1,2.8-2.7c0-2.6,0-5.3,0-7.8c0-1.7-1.1-2.8-2.8-2.8c-2.6,0-5.1,0-7.7,0c-1.7,0-2.8,1.1-2.8,2.8c0,2.6,0,5.1,0,7.7
			c0,1.7,1.1,2.8,2.8,2.8C64.9,33.4,66.2,33.4,67.5,33.4z"/>
	</g>
</g>
<g id="Warstwa_2">
</g>
</svg>
