<?xml version="1.0" encoding="utf-8"?>
<!-- Generator: Adobe Illustrator 21.1.0, SVG Export Plug-In . SVG Version: 6.00 Build 0)  -->
<svg version="1.1" id="Warstwa_1" xmlns="http://www.w3.org/2000/svg" xmlns:xlink="http://www.w3.org/1999/xlink" x="0px" y="0px"
	 viewBox="0 0 76.4 76.7" style="enable-background:new 0 0 76.4 76.7;" xml:space="preserve">
<style type="text/css">
	.st0{fill:#B3B3B3;}
</style>
<g id="Warstwa_1_1_">
	<g>
		<path class="st0" d="M76.4,76.5c-25.5,0-50.8,0-76.4,0C0,51.1,0,25.7,0,0c25.4,0,50.7,0,76.4,0C76.4,25.4,76.4,50.7,76.4,76.5z
			 M74.6,2C50,2,26,2,1.9,2c0,24.4,0,48.4,0,72.5c24.4,0,48.5,0,72.7,0C74.6,50.2,74.6,26.3,74.6,2z"/>
		<path class="st0" d="M38.4,59.2c-6.7,0-13.3,0.2-19.9-0.1c-6.4-0.3-9.1-2.4-9.5-8.6c-0.5-8.4-0.3-16.9,0.1-25.4
			c0.2-5,3.4-7.9,8.5-7.9c14-0.1,27.9,0,41.9,0c5.2,0,8.4,3,8.7,7.8c0.5,8.7,0.5,17.5,0,26.3c-0.3,4.9-3.7,7.7-8.8,7.8
			C52.3,59.2,45.4,59.1,38.4,59.2C38.4,59.1,38.4,59.2,38.4,59.2z M30.8,27.3c0,7.2,0,13.4,0,20.4c6.5-3.4,12.4-6.6,19.2-10.2
			C43.3,33.9,37.4,30.8,30.8,27.3z"/>
	</g>
</g>
<g id="Warstwa_2">
</g>
</svg>
